<svg version="1.0" xmlns="http://www.w3.org/2000/svg"
 width="512.000000pt" height="512.000000pt" viewBox="0 0 512.000000 512.000000"
 preserveAspectRatio="xMidYMid meet">

<g transform="translate(0.000000,512.000000) scale(0.100000,-0.100000)"
fill="#81948b" stroke="none">
<path d="M264 4826 c-40 -40 -44 -80 -12 -121 12 -15 95 -76 185 -136 187
-124 205 -129 259 -75 40 40 44 80 12 121 -12 15 -95 76 -185 136 -187 124
-205 129 -259 75z"/>
<path d="M1301 4850 c-179 -38 -319 -190 -351 -383 -22 -130 2 -240 81 -374
42 -71 204 -239 343 -358 l105 -90 -62 -13 c-268 -57 -496 -155 -707 -305
-113 -81 -319 -289 -403 -407 -76 -109 -183 -317 -221 -435 -154 -474 -91
-998 171 -1408 269 -422 707 -713 1192 -793 341 -55 722 -4 1040 142 l80 36
96 -42 c407 -178 818 -207 1221 -85 406 124 746 382 977 742 117 183 203 414
238 643 17 109 17 371 0 480 -35 229 -120 459 -238 643 -269 421 -708 713
-1192 793 -342 55 -722 4 -1041 -142 l-81 -37 -72 32 c-111 51 -289 111 -389
131 -50 11 -92 21 -95 23 -2 3 58 59 135 126 292 253 392 411 392 616 0 139
-46 253 -139 345 -171 169 -434 171 -595 6 l-53 -54 -49 49 c-71 73 -170 119
-265 124 -41 2 -94 0 -118 -5z m180 -218 c62 -32 116 -97 143 -172 20 -55 65
-100 101 -100 52 0 76 22 115 105 82 171 203 233 336 171 92 -43 144 -133 144
-253 0 -151 -96 -273 -447 -572 l-141 -120 -154 131 c-277 236 -378 348 -420
465 -50 142 16 304 144 355 64 25 117 22 179 -10z m407 -1182 c848 -92 1467
-855 1358 -1676 -37 -279 -154 -552 -329 -768 l-23 -28 -45 22 c-24 13 -63 36
-87 52 l-43 29 31 37 c204 245 321 579 307 882 -9 192 -43 328 -121 495 -152
323 -435 574 -778 691 -155 53 -252 68 -433 68 -98 0 -176 -5 -202 -12 -79
-23 -108 -102 -59 -159 l24 -28 199 0 c119 -1 218 -6 248 -13 28 -7 60 -15 73
-17 23 -6 23 -6 -12 -53 -255 -335 -375 -791 -321 -1212 39 -306 146 -567 334
-816 37 -50 42 -47 -111 -70 -369 -54 -735 75 -998 352 -252 265 -353 621
-270 954 25 100 120 299 183 386 48 65 77 116 77 134 0 29 -34 79 -61 90 -47
20 -94 5 -132 -43 -129 -158 -239 -394 -278 -592 -20 -104 -18 -331 4 -435 84
-392 336 -720 698 -909 294 -154 619 -188 972 -104 l108 26 32 -30 c18 -17 56
-48 84 -71 l53 -40 -68 -26 c-77 -30 -223 -68 -332 -87 -98 -17 -374 -17 -475
0 -408 66 -758 277 -1005 606 -122 162 -233 426 -271 645 -17 97 -17 363 0
460 38 219 149 484 271 645 154 203 360 373 575 474 171 80 309 117 540 144
65 8 191 6 283 -3z m1742 -10 c399 -63 751 -276 1000 -605 122 -161 233 -426
271 -645 17 -97 17 -363 0 -460 -38 -219 -149 -483 -271 -645 -561 -746 -1618
-835 -2303 -195 -130 121 -249 286 -326 451 -240 513 -162 1124 202 1573 l23
28 45 -22 c24 -13 63 -36 87 -52 l43 -29 -31 -37 c-204 -245 -321 -579 -307
-882 9 -192 43 -328 121 -495 152 -323 435 -574 778 -691 154 -53 252 -68 428
-68 175 0 279 16 425 66 455 156 790 535 882 996 23 117 23 346 0 463 -103
520 -516 933 -1041 1040 -205 42 -402 36 -629 -18 l-108 -26 -32 30 c-18 17
-56 48 -84 71 l-53 40 68 26 c115 45 294 85 447 100 63 6 293 -3 365 -14z
m-73 -395 c311 -50 585 -221 766 -476 65 -92 133 -239 164 -356 23 -86 26
-118 26 -253 0 -135 -3 -167 -26 -253 -136 -512 -624 -870 -1147 -843 -63 3
-135 10 -160 16 -103 23 -96 15 -56 68 255 335 375 791 321 1212 -39 306 -146
567 -334 816 -36 48 -37 47 70 63 164 24 254 26 376 6z m-962 -386 c20 -23 60
-78 89 -122 237 -370 232 -822 -13 -1187 -27 -41 -61 -88 -75 -105 l-25 -29
-32 29 c-43 42 -149 206 -188 291 -144 324 -110 715 89 1023 45 70 101 141
111 141 4 0 23 -18 44 -41z"/>
<path d="M1095 3051 c-93 -40 -73 -171 28 -188 32 -5 41 -1 72 30 44 44 47 84
8 127 -30 32 -75 45 -108 31z"/>
<path d="M2937 4751 c-90 -60 -173 -121 -185 -136 -32 -41 -28 -81 12 -121 54
-54 72 -49 259 75 90 60 173 121 185 136 32 41 28 81 -12 121 -54 54 -72 49
-259 -75z"/>
<path d="M437 4151 c-90 -60 -173 -121 -185 -136 -32 -41 -28 -81 12 -121 54
-54 72 -49 259 75 90 60 173 121 185 136 32 41 28 81 -12 121 -54 54 -72 49
-259 -75z"/>
<path d="M2764 4226 c-40 -40 -44 -80 -12 -121 12 -15 95 -76 185 -136 187
-124 205 -129 259 -75 40 40 44 80 12 121 -12 15 -95 76 -185 136 -187 124
-205 129 -259 75z"/>
</g>
</svg>
