<?xml version="1.0" standalone="no"?>
<!DOCTYPE svg PUBLIC "-//W3C//DTD SVG 20010904//EN"
 "http://www.w3.org/TR/2001/REC-SVG-20010904/DTD/svg10.dtd">
<svg version="1.0" xmlns="http://www.w3.org/2000/svg"
 width="512.000000pt" height="512.000000pt" viewBox="0 0 512.000000 512.000000"
 preserveAspectRatio="xMidYMid meet">

<g transform="translate(0.000000,512.000000) scale(0.100000,-0.100000)"
fill="#81948b" stroke="none">
<path d="M1995 5102 c-49 -23 -79 -55 -100 -104 -48 -117 32 -250 160 -264 42
-5 59 -1 105 23 172 88 121 347 -72 360 -38 3 -65 -2 -93 -15z m109 -82 c8 0
25 -12 40 -26 20 -21 26 -37 26 -69 0 -106 -137 -137 -184 -42 -16 34 -17 42
-4 75 14 38 70 77 96 67 8 -3 19 -5 26 -5z"/>
<path d="M2915 5112 c-96 -32 -154 -129 -133 -225 7 -34 0 -57 -63 -212 -47
-115 -69 -181 -64 -194 6 -18 56 -41 93 -41 6 0 12 -1 12 -3 0 -2 -67 -165
-150 -362 -82 -197 -150 -366 -150 -377 0 -13 14 -25 44 -38 51 -23 191 -58
273 -68 56 -7 58 -8 61 -39 l3 -33 -260 0 -261 0 0 208 0 208 38 14 c55 19 91
49 120 100 27 44 27 47 27 235 0 188 0 190 -27 236 -28 48 -85 93 -130 104
-26 7 -28 11 -28 56 0 35 -5 54 -19 68 -23 23 -35 21 -150 -29 -40 -17 -81
-29 -90 -27 -9 3 -55 22 -103 42 -112 46 -128 41 -128 -44 l0 -58 -40 -12
c-52 -15 -108 -65 -131 -116 -16 -34 -19 -68 -19 -219 0 -161 2 -184 21 -222
26 -54 77 -100 129 -115 l40 -12 0 -208 0 -207 -237 -4 c-217 -4 -243 -6 -295
-27 -118 -46 -210 -163 -228 -292 -5 -35 -10 -211 -10 -390 0 -358 3 -339 -59
-339 -36 0 -133 -34 -180 -62 -91 -57 -163 -145 -203 -254 -21 -57 -22 -74
-26 -521 l-3 -463 -169 0 c-159 0 -170 -1 -180 -20 -15 -28 -10 -35 163 -257
l151 -193 878 0 878 0 0 -199 0 -199 -137 -4 c-123 -3 -144 -7 -194 -30 -128
-59 -236 -207 -187 -256 17 -17 1519 -17 1536 0 49 49 -59 197 -187 257 -51
23 -70 26 -199 29 l-142 4 2 196 3 197 882 5 882 5 160 204 c89 112 161 208
161 213 0 5 -5 18 -10 29 -10 18 -23 19 -180 19 l-169 0 -3 463 c-4 445 -5
464 -26 521 -55 146 -156 247 -297 296 -32 11 -72 20 -89 20 -17 0 -36 4 -43
8 -8 5 -12 110 -15 377 -4 361 -4 371 -28 430 -32 82 -123 173 -205 205 -58
23 -71 24 -393 28 l-333 4 3 31 c3 31 5 32 65 40 72 9 241 50 280 69 16 7 29
23 31 34 2 12 -62 180 -142 373 -81 194 -146 356 -146 361 0 4 17 11 38 15 46
9 62 21 62 50 0 12 -30 94 -66 181 -59 144 -65 165 -64 225 0 36 -4 79 -10 95
-33 86 -149 143 -235 116z m128 -123 c80 -86 -36 -213 -130 -143 -60 45 -51
133 16 166 44 22 78 15 114 -23z m91 -336 c25 -62 46 -115 46 -118 0 -3 -8 -5
-19 -5 -13 0 -24 16 -40 57 -27 69 -46 93 -78 93 -19 0 -23 5 -23 28 0 22 7
32 33 44 17 9 33 15 33 14 1 0 23 -51 48 -113z m-239 95 c35 -16 36 -68 2 -68
-31 0 -48 -22 -77 -92 -17 -44 -27 -58 -42 -58 -13 0 -18 5 -15 13 37 96 91
217 98 217 4 0 20 -5 34 -12z m-867 -143 c4 -4 -87 -45 -99 -45 -5 0 -9 20 -9
45 l0 45 53 -21 c28 -11 53 -22 55 -24z m202 -6 c0 -45 -7 -47 -70 -18 l-45
21 50 23 c28 12 53 20 58 18 4 -2 7 -22 7 -44z m966 -434 c95 -231 174 -423
174 -426 0 -11 -110 -38 -215 -54 -127 -19 -243 -19 -370 0 -92 14 -215 43
-215 51 0 2 77 189 171 416 94 227 174 419 176 426 4 9 21 12 55 10 l50 -3
174 -420z m-1366 332 c0 -68 33 -72 158 -19 l88 39 89 -39 c123 -53 155 -49
155 19 0 43 19 43 58 -2 40 -45 45 -74 40 -242 -3 -152 -13 -179 -69 -209
l-29 -15 0 154 c0 161 -4 177 -45 177 -45 0 -45 -3 -45 -432 l0 -408 -55 0
-55 0 0 198 c0 208 -3 222 -45 222 -42 0 -45 -14 -45 -222 l0 -198 -55 0 -55
0 0 275 0 275 93 0 c98 0 117 7 117 45 0 38 -19 45 -117 45 l-93 0 0 88 c0 93
-8 112 -45 112 -41 0 -45 -16 -45 -178 l0 -154 -32 19 c-57 33 -68 69 -68 231
0 153 10 197 52 232 34 29 48 25 48 -13z m1180 -947 c0 -28 -2 -30 -40 -30
-38 0 -40 2 -40 30 0 28 2 30 40 30 38 0 40 -2 40 -30z m795 -154 c60 -29 107
-76 134 -136 16 -35 21 -66 21 -137 l0 -93 -60 -60 c-152 -152 -366 -183 -558
-80 -103 55 -177 142 -222 263 -35 92 -75 89 -115 -10 -32 -81 -69 -136 -128
-190 -175 -161 -452 -164 -628 -5 -62 56 -99 109 -132 192 -44 110 -79 105
-131 -21 -43 -105 -137 -203 -233 -245 -191 -82 -391 -46 -534 97 l-59 59 0
83 c0 49 6 102 16 129 21 63 78 126 138 154 l51 24 1195 0 1195 0 50 -24z
m-1717 -405 c70 -107 196 -198 326 -236 76 -22 216 -22 293 0 128 37 269 141
329 243 l26 43 30 -48 c72 -113 210 -211 343 -243 69 -16 208 -14 280 5 62 17
156 66 213 111 l32 27 0 -207 0 -206 -1400 0 -1400 0 0 205 0 206 53 -40 c105
-79 202 -111 333 -113 102 -1 169 14 264 60 82 40 181 130 221 202 13 22 23
40 24 40 1 0 16 -22 33 -49z m2124 -643 c79 -37 142 -98 181 -176 31 -63 32
-73 35 -201 l4 -134 -84 -81 c-94 -91 -170 -135 -294 -166 -284 -73 -593 69
-723 331 l-42 85 40 41 c40 40 47 61 42 122 -9 94 -123 152 -211 106 -86 -45
-94 -184 -13 -243 l27 -19 -18 -46 c-47 -125 -181 -267 -310 -331 -188 -93
-424 -86 -610 20 -105 59 -221 191 -268 304 l-21 50 27 21 c37 29 56 70 56
120 0 104 -103 167 -205 125 -91 -38 -102 -180 -19 -245 l27 -21 -21 -50 c-52
-125 -166 -248 -289 -313 -256 -134 -550 -90 -755 114 l-78 77 0 120 c0 98 4
132 21 177 38 103 111 178 215 220 l59 25 1585 -3 1585 -2 57 -27z m-2288
-164 c19 -18 21 -55 4 -72 -7 -7 -24 -12 -38 -12 -14 0 -31 5 -38 12 -28 28
-2 88 38 88 10 0 26 -7 34 -16z m1341 -4 c28 -31 10 -74 -32 -78 -53 -5 -77
52 -35 86 23 18 46 15 67 -8z m-1221 -485 c92 -91 176 -144 291 -183 73 -24
93 -27 230 -27 138 0 156 3 230 28 164 58 318 181 399 320 l39 67 36 -62 c56
-97 189 -225 287 -275 163 -85 351 -110 519 -69 99 24 225 87 301 152 l64 55
-2 -263 -3 -263 -1872 -3 -1873 -2 0 261 0 262 33 -27 c232 -191 496 -241 757
-143 47 18 112 50 145 72 83 55 183 159 229 239 l39 67 35 -63 c20 -36 70 -97
116 -143z m2690 -627 c-4 -7 -20 -30 -37 -50 l-29 -38 -477 0 c-502 0 -501 0
-501 -45 0 -45 1 -45 462 -45 241 0 438 -3 438 -6 0 -3 -16 -26 -36 -50 l-36
-44 -1958 0 -1958 0 -36 44 c-20 24 -36 47 -36 50 0 3 535 6 1188 6 911 0
1191 3 1200 12 7 7 12 21 12 33 0 12 -5 26 -12 33 -9 9 -298 12 -1238 12
l-1227 0 -29 38 c-17 20 -34 43 -38 50 -6 9 432 12 2174 12 1742 0 2180 -3
2174 -12z m-2024 -568 l0 -200 -150 0 -150 0 0 200 0 200 150 0 150 0 0 -200z
m400 -322 c31 -15 69 -41 85 -58 l29 -30 -657 0 c-389 0 -657 4 -657 9 0 12
54 58 91 76 58 30 114 33 579 32 l475 -2 55 -27z"/>
<path d="M3077 3836 c-85 -12 -106 -22 -107 -53 0 -6 8 -19 17 -29 15 -14 30
-16 108 -11 51 4 103 11 118 16 34 13 44 47 21 72 -19 21 -31 22 -157 5z"/>
</g>
</svg>
