<?xml version="1.0" standalone="no"?>
<!DOCTYPE svg PUBLIC "-//W3C//DTD SVG 20010904//EN"
 "http://www.w3.org/TR/2001/REC-SVG-20010904/DTD/svg10.dtd">
<svg version="1.0" xmlns="http://www.w3.org/2000/svg"
 width="512.000000pt" height="512.000000pt" viewBox="0 0 512.000000 512.000000"
 preserveAspectRatio="xMidYMid meet">

<g transform="translate(0.000000,512.000000) scale(0.100000,-0.100000)"
fill="#000000" stroke="none">
<path d="M2406 4386 c-146 -54 -208 -223 -137 -371 16 -33 41 -76 55 -95 78
-104 306 -307 329 -293 39 22 143 113 213 185 135 140 184 229 184 337 0 109
-80 214 -183 242 -55 15 -148 6 -189 -18 -31 -18 -33 -18 -72 1 -51 26 -148
31 -200 12z m137 -120 c18 -7 47 -30 66 -50 l34 -36 47 44 c26 24 57 47 69 51
32 10 84 -2 115 -26 99 -78 65 -191 -110 -366 -57 -57 -110 -103 -118 -103
-24 0 -180 155 -231 229 -76 111 -71 200 13 249 43 25 71 27 115 8z"/>
<path d="M1600 3845 c-150 -31 -271 -99 -350 -197 -25 -31 -153 -251 -285
-489 -218 -393 -240 -438 -240 -481 0 -61 25 -87 130 -141 88 -44 144 -52 186
-24 14 10 84 117 163 252 76 129 144 242 150 251 24 33 -12 -297 -54 -489 -11
-50 -20 -103 -20 -117 0 -34 25 -56 74 -65 37 -7 38 -8 33 -44 -3 -20 -18
-164 -33 -320 -18 -182 -32 -288 -41 -296 -10 -10 -20 -10 -55 2 -170 59 -306
-116 -222 -285 25 -51 138 -176 202 -224 l33 -24 -11 -90 c-17 -154 -14 -208
16 -243 30 -36 69 -48 190 -57 103 -8 143 5 169 55 8 16 51 232 97 480 45 248
83 449 85 447 2 -2 41 -208 87 -459 51 -277 91 -465 101 -480 27 -41 64 -50
184 -45 124 6 161 21 187 76 15 33 13 69 -55 741 -39 388 -71 718 -71 732 0
23 6 28 45 38 65 16 70 35 40 168 -30 136 -53 290 -61 418 l-6 100 142 -240
c78 -132 152 -251 165 -264 14 -15 38 -25 67 -28 38 -4 57 1 135 40 107 54
133 82 133 143 0 38 -30 98 -247 486 -225 403 -253 449 -314 511 -72 72 -160
121 -274 153 -81 23 -382 29 -475 9z m380 -116 c35 -5 66 -11 67 -13 4 -3
-215 -408 -226 -419 -7 -7 -220 374 -229 410 -2 7 12 14 35 18 21 4 45 8 53
10 37 7 241 4 300 -6z m-359 -343 c81 -151 154 -275 166 -283 51 -34 60 -21
223 279 84 156 155 285 156 287 9 11 119 -87 148 -132 19 -29 132 -227 251
-442 120 -214 219 -393 221 -397 4 -6 -125 -83 -130 -76 -2 1 -92 154 -200
338 -108 184 -206 343 -217 353 -28 23 -54 22 -80 -5 -21 -22 -21 -28 -16
-213 6 -198 25 -375 58 -534 11 -52 17 -96 14 -99 -10 -10 -250 -54 -253 -46
-1 5 -26 54 -55 109 -33 63 -59 101 -70 103 -47 9 -63 -6 -115 -113 -28 -58
-56 -105 -61 -105 -8 0 -181 34 -227 45 -21 5 -21 6 -8 69 35 168 55 351 61
552 6 206 5 212 -16 233 -26 26 -52 27 -79 4 -11 -10 -106 -166 -212 -348
-106 -181 -196 -334 -200 -338 -4 -5 -37 6 -72 25 l-65 33 238 429 c131 236
253 445 271 464 46 48 110 94 119 85 3 -5 71 -129 150 -277z m225 -1018 c48
-97 55 -100 189 -72 42 9 79 13 83 9 5 -5 152 -1406 148 -1412 -1 -1 -38 -5
-82 -9 l-79 -6 -114 618 c-62 341 -120 629 -127 642 -17 26 -74 31 -93 8 -6
-7 -63 -294 -125 -636 -63 -342 -116 -624 -118 -626 -6 -6 -135 8 -148 16 -9
6 -8 43 4 160 l16 152 63 68 c84 91 120 158 120 224 0 82 -47 154 -115 179
-10 4 -18 12 -18 18 0 28 61 604 65 607 2 2 40 -4 84 -13 128 -26 140 -22 180
58 19 37 35 67 37 67 2 0 16 -24 30 -52z m-624 -799 c12 -6 33 -25 46 -41 l25
-29 36 34 c48 46 72 52 104 26 42 -32 36 -74 -17 -146 -24 -32 -62 -72 -84
-90 l-40 -32 -61 61 c-100 98 -125 168 -75 207 31 24 38 25 66 10z"/>
<path d="M1772 2988 c-18 -18 -14 -73 6 -91 25 -23 58 -21 82 3 24 24 25 48 4
78 -17 25 -71 31 -92 10z"/>
<path d="M1776 2794 c-9 -8 -16 -28 -16 -44 0 -36 24 -60 60 -60 31 0 60 30
60 62 0 46 -72 75 -104 42z"/>
<path d="M3038 3843 c-36 -23 -46 -48 -69 -177 -11 -61 -31 -151 -44 -201 -52
-191 -42 -267 56 -454 88 -167 99 -207 99 -349 l0 -118 -54 -125 c-29 -68 -89
-203 -133 -299 -222 -485 -343 -915 -303 -1079 9 -39 25 -66 63 -107 90 -99
215 -144 403 -144 80 0 111 -4 148 -20 146 -65 411 -65 574 -1 41 16 75 21
150 21 187 1 305 43 397 142 78 84 90 147 61 313 -45 254 -136 519 -314 913
l-101 224 82 81 c97 97 139 172 139 245 0 116 -94 202 -208 189 l-43 -4 59
116 c73 142 95 221 86 312 -3 36 -13 85 -21 108 -8 23 -28 113 -45 199 -17 86
-36 168 -42 180 -17 33 -59 52 -112 52 -98 0 -125 -34 -136 -169 -9 -114 -17
-137 -65 -190 -44 -49 -88 -64 -181 -64 -151 1 -221 77 -234 253 -7 106 -17
133 -60 155 -38 20 -118 19 -152 -2z m116 -311 c34 -94 101 -162 196 -198 70
-27 219 -24 294 5 119 47 187 148 210 313 15 104 18 102 41 -27 9 -49 26 -126
37 -170 49 -188 45 -217 -54 -412 -57 -114 -76 -143 -92 -143 -28 -1 -98 -33
-115 -53 -12 -15 -42 -17 -246 -17 l-232 0 -13 43 c-7 23 -44 104 -83 179 -67
128 -72 143 -75 211 -3 53 2 95 16 148 12 41 30 126 42 189 12 63 24 122 27
130 3 8 12 -23 19 -70 7 -47 20 -104 28 -128z m678 -763 c12 -6 33 -25 47 -42
l25 -30 31 36 c39 47 72 55 108 27 51 -40 31 -96 -71 -203 l-66 -68 -64 63
c-108 107 -131 180 -67 216 25 14 32 15 57 1z m-206 -111 c6 -24 14 -51 19
-60 7 -17 -7 -18 -219 -18 l-226 0 0 60 0 60 208 0 207 0 11 -42z m167 -231
c31 -27 56 -73 148 -277 199 -440 291 -707 326 -948 17 -116 17 -119 -3 -153
-27 -46 -94 -95 -157 -114 -29 -9 -93 -19 -142 -22 l-91 -6 -12 174 c-14 197
-39 423 -78 713 -21 155 -31 203 -46 218 -38 38 -98 10 -98 -46 0 -17 13 -128
30 -246 37 -273 69 -595 72 -729 l3 -105 -60 -19 c-83 -27 -283 -29 -375 -4
-36 10 -69 22 -73 26 -17 17 33 545 87 921 25 179 22 205 -21 217 -33 8 -71
-11 -78 -39 -22 -98 -89 -669 -106 -911 l-12 -167 -61 0 c-138 1 -259 46 -313
117 -25 32 -28 44 -26 103 5 192 126 565 317 983 47 103 86 189 86 191 0 2 16
38 35 80 l34 76 288 0 288 -1 38 -32z"/>
</g>
</svg>
